<svg xmlns="http://www.w3.org/2000/svg" version="1.1" xmlns:xlink="http://www.w3.org/1999/xlink" xmlns:svgjs="http://svgjs.dev/svgjs" width="1000" height="1000" viewBox="0 0 1000 1000"><rect width="1000" height="1000" fill="#000000"></rect><g transform="matrix(0.7,0,0,0.7,149.57575757575756,409.39011928937634)"><svg viewBox="0 0 396 103" data-background-color="#ffffff" preserveAspectRatio="xMidYMid meet" height="260" width="1000" xmlns="http://www.w3.org/2000/svg" xmlns:xlink="http://www.w3.org/1999/xlink"><g id="tight-bounds" transform="matrix(1,0,0,1,0.2400000000000091,-0.22078138459625052)"><svg viewBox="0 0 395.52 103.44156318023235" height="103.44156318023235" width="395.52"><g><svg viewBox="0 0 554.78695822568 145.0951410570151" height="103.44156318023235" width="395.52"><g transform="matrix(1,0,0,1,0,20.052946412366055)"><svg viewBox="0 0 395.52 104.98924823228299" height="104.98924823228299" width="395.52"><g><svg viewBox="0 0 395.52 104.98924823228299" height="104.98924823228299" width="395.52"><g><svg viewBox="0 0 395.52 60.03074081509736" height="60.03074081509736" width="395.52"><g transform="matrix(1,0,0,1,0,0)"><svg width="395.52" viewBox="3.3499999046325684 -37.5 249.01998901367188 37.79999923706055" height="60.03074081509736" data-palette-color="#ff4136"><path d="M22-10.45L33-36.8 40.2-36.8 34.95 0 27.75 0 30.95-22.45 21.55 0 14.7 0 15.7-22.55 7.35 0 3.35 0 16.05-34.35Q12.2-33.05 10.15-30.15 8.1-27.25 8.1-23.1L8.1-23.1Q8.1-22.1 8.22-21.38 8.35-20.65 8.65-20.05L8.65-20.05Q8.75-19.85 8.78-19.78 8.8-19.7 8.8-19.65L8.8-19.65Q6.1-19.65 4.78-20.78 3.45-21.9 3.45-24.2L3.45-24.2Q3.45-26.6 4.93-29.08 6.4-31.55 9-33.6L9-33.6Q11.35-35.45 14.05-36.48 16.75-37.5 19.35-37.5L19.35-37.5Q20.3-37.5 21.28-37.33 22.25-37.15 23.15-36.8L23.15-36.8 22-10.45ZM57.7-20.65L57.7-20.65Q57.7-16.5 54.3-13.43 50.9-10.35 46.2-10.1L46.2-10.1Q46.15-9.25 46.12-8.83 46.1-8.4 46.1-8.1L46.1-8.1Q46.1-5.8 46.87-4.85 47.65-3.9 49.7-3.9L49.7-3.9Q52.05-3.9 54.02-4.98 56-6.05 58.55-8.95L58.55-8.95 60.25-8.95Q57.35-4.25 53.95-1.98 50.55 0.3 46.5 0.3L46.5 0.3Q42.65 0.3 40.67-1.7 38.7-3.7 38.7-7.65L38.7-7.65Q38.7-10.5 39.6-13.7 40.5-16.9 42-19.4L42-19.4Q43.85-22.4 46.42-23.93 49-25.45 52.2-25.45L52.2-25.45Q54.95-25.45 56.32-24.28 57.7-23.1 57.7-20.65ZM52.6-22.8L52.6-22.8Q50.9-22.8 49.17-19.78 47.45-16.75 46.6-12.5L46.6-12.5Q49.5-12.7 51.67-15.18 53.85-17.65 53.85-20.75L53.85-20.75Q53.85-21.8 53.55-22.3 53.25-22.8 52.6-22.8ZM76.9-20.65L76.9-20.65Q76.9-16.5 73.5-13.43 70.1-10.35 65.4-10.1L65.4-10.1Q65.35-9.25 65.32-8.83 65.3-8.4 65.3-8.1L65.3-8.1Q65.3-5.8 66.07-4.85 66.85-3.9 68.9-3.9L68.9-3.9Q71.25-3.9 73.22-4.98 75.2-6.05 77.75-8.95L77.75-8.95 79.45-8.95Q76.55-4.25 73.15-1.98 69.75 0.3 65.7 0.3L65.7 0.3Q61.85 0.3 59.87-1.7 57.9-3.7 57.9-7.65L57.9-7.65Q57.9-10.5 58.8-13.7 59.7-16.9 61.2-19.4L61.2-19.4Q63.05-22.4 65.62-23.93 68.2-25.45 71.4-25.45L71.4-25.45Q74.15-25.45 75.52-24.28 76.9-23.1 76.9-20.65ZM71.8-22.8L71.8-22.8Q70.1-22.8 68.37-19.78 66.65-16.75 65.8-12.5L65.8-12.5Q68.7-12.7 70.87-15.18 73.05-17.65 73.05-20.75L73.05-20.75Q73.05-21.8 72.75-22.3 72.45-22.8 71.8-22.8ZM79.14-23L79.54-25 81.19-25 82.69-31.9 90.09-32.9 88.39-25 91.39-25 90.99-23 87.99-23 84.79-8Q84.69-7.55 84.64-7.18 84.59-6.8 84.59-6.4L84.59-6.4Q84.59-5.4 85.07-4.98 85.54-4.55 86.64-4.55L86.64-4.55Q88.04-4.55 89.29-5.78 90.54-7 91.14-8.95L91.14-8.95 93.24-8.95Q91.64-4.4 88.94-2.05 86.24 0.3 82.74 0.3L82.74 0.3Q80.24 0.3 78.82-1.28 77.39-2.85 77.39-5.7L77.39-5.7Q77.39-6.35 77.49-7.18 77.59-8 77.79-8.95L77.79-8.95 80.79-23 79.14-23ZM108.64-34L108.64-34Q111.19-35.65 114.11-36.58 117.04-37.5 119.84-37.5L119.84-37.5Q120.19-37.5 120.61-37.48 121.04-37.45 121.84-37.4L121.84-37.4 113.89 0 106.69 0 113.94-33.95Q110.54-32.55 108.74-29.75 106.94-26.95 106.94-23.05L106.94-23.05Q106.94-22.1 107.06-21.4 107.19-20.7 107.49-20.05L107.49-20.05Q107.59-19.85 107.61-19.78 107.64-19.7 107.64-19.65L107.64-19.65Q104.84-19.65 103.56-20.83 102.29-22 102.29-24.5L102.29-24.5Q102.29-27 103.96-29.5 105.64-32 108.64-34ZM132.89-5.35L132.89-5.35Q132.89-6.25 133.11-7.6 133.34-8.95 134.04-11.9L134.04-11.9Q134.74-14.75 134.94-16 135.14-17.25 135.14-18.1L135.14-18.1Q135.14-19.35 134.69-20 134.24-20.65 133.34-20.65L133.34-20.65Q132.14-20.65 131.11-19.43 130.09-18.2 129.44-16.05L129.44-16.05 126.04 0 118.84 0 124.14-25 131.34-25 130.79-22.4Q132.04-23.8 133.49-24.5 134.94-25.2 136.64-25.2L136.64-25.2Q139.29-25.2 140.74-23.75 142.19-22.3 142.19-19.55L142.19-19.55Q142.19-18.4 141.91-16.82 141.64-15.25 140.84-12L140.84-12Q140.19-9.45 139.99-8.4 139.79-7.35 139.79-6.65L139.79-6.65Q139.79-5.6 140.29-5.08 140.79-4.55 141.79-4.55L141.79-4.55Q143.04-4.55 143.94-5.4 144.84-6.25 145.99-8.95L145.99-8.95 148.09-8.95Q146.49-4.3 144.21-2 141.94 0.3 138.79 0.3L138.79 0.3Q135.99 0.3 134.44-1.23 132.89-2.75 132.89-5.35ZM147.33-23L147.73-25 149.38-25 150.88-31.9 158.28-32.9 156.58-25 159.58-25 159.18-23 156.18-23 152.98-8Q152.88-7.55 152.83-7.18 152.78-6.8 152.78-6.4L152.78-6.4Q152.78-5.4 153.26-4.98 153.73-4.55 154.83-4.55L154.83-4.55Q156.23-4.55 157.48-5.78 158.73-7 159.33-8.95L159.33-8.95 161.43-8.95Q159.83-4.4 157.13-2.05 154.43 0.3 150.93 0.3L150.93 0.3Q148.43 0.3 147.01-1.28 145.58-2.85 145.58-5.7L145.58-5.7Q145.58-6.35 145.68-7.18 145.78-8 145.98-8.95L145.98-8.95 148.98-23 147.33-23ZM177.43-20.65L177.43-20.65Q177.43-16.5 174.03-13.43 170.63-10.35 165.93-10.1L165.93-10.1Q165.88-9.25 165.86-8.83 165.83-8.4 165.83-8.1L165.83-8.1Q165.83-5.8 166.61-4.85 167.38-3.9 169.43-3.9L169.43-3.9Q171.78-3.9 173.76-4.98 175.73-6.05 178.28-8.95L178.28-8.95 179.98-8.95Q177.08-4.25 173.68-1.98 170.28 0.3 166.23 0.3L166.23 0.3Q162.38 0.3 160.41-1.7 158.43-3.7 158.43-7.65L158.43-7.65Q158.43-10.5 159.33-13.7 160.23-16.9 161.73-19.4L161.73-19.4Q163.58-22.4 166.16-23.93 168.73-25.45 171.93-25.45L171.93-25.45Q174.68-25.45 176.06-24.28 177.43-23.1 177.43-20.65ZM172.33-22.8L172.33-22.8Q170.63-22.8 168.91-19.78 167.18-16.75 166.33-12.5L166.33-12.5Q169.23-12.7 171.41-15.18 173.58-17.65 173.58-20.75L173.58-20.75Q173.58-21.8 173.28-22.3 172.98-22.8 172.33-22.8ZM187.63-19L183.63 0 176.43 0 181.73-25 188.93-25 188.28-21.9Q190.48-23.75 191.75-24.38 193.03-25 194.33-25L194.33-25Q195.88-25 196.83-23.93 197.78-22.85 197.78-21.25L197.78-21.25Q197.78-19.7 196.78-18.65 195.78-17.6 194.18-17.6L194.18-17.6Q193.33-17.6 192.85-18 192.38-18.4 192.18-19.65L192.18-19.65Q192.03-20.45 191.83-20.68 191.63-20.9 191.28-20.9L191.28-20.9Q190.43-20.9 189.68-20.55 188.93-20.2 187.63-19L187.63-19ZM209.98-31.65L209.98-31.65Q209.98-30 208.8-28.85 207.63-27.7 205.98-27.7L205.98-27.7Q204.33-27.7 203.18-28.85 202.03-30 202.03-31.65L202.03-31.65Q202.03-33.3 203.18-34.48 204.33-35.65 205.98-35.65L205.98-35.65Q207.63-35.65 208.8-34.48 209.98-33.3 209.98-31.65ZM197.23-5.7L197.23-5.7Q197.23-6.35 197.33-7.18 197.43-8 197.63-8.95L197.63-8.95 201.03-25 208.23-25 204.63-8Q204.53-7.55 204.48-7.18 204.43-6.8 204.43-6.4L204.43-6.4Q204.43-5.4 204.9-4.98 205.38-4.55 206.48-4.55L206.48-4.55Q207.88-4.55 209.13-5.78 210.38-7 210.98-8.95L210.98-8.95 213.08-8.95Q211.48-4.4 208.78-2.05 206.08 0.3 202.58 0.3L202.58 0.3Q200.08 0.3 198.65-1.28 197.23-2.85 197.23-5.7ZM210.27-7.7L210.27-7.7Q210.27-10.55 211.2-13.75 212.12-16.95 213.72-19.45L213.72-19.45Q215.57-22.4 218.17-23.93 220.77-25.45 223.97-25.45L223.97-25.45Q227.17-25.45 228.77-23.45 230.37-21.45 230.37-17.45L230.37-17.45Q230.47-17.4 230.6-17.38 230.72-17.35 230.92-17.35L230.92-17.35Q232.47-17.35 234.62-18.2 236.77-19.05 238.62-20.35L238.62-20.35 239.07-19Q237.67-17.5 235.35-16.4 233.02-15.3 230.22-14.85L230.22-14.85Q229.62-8.1 226.32-3.95 223.02 0.2 218.27 0.2L218.27 0.2Q214.37 0.2 212.32-1.8 210.27-3.8 210.27-7.7ZM224.37-22.4L224.37-22.4Q221.97-22.4 219.85-17.55 217.72-12.7 217.72-8.35L217.72-8.35Q217.72-6 218.25-5.15 218.77-4.3 220.27-4.3L220.27-4.3Q222.12-4.3 223.8-7.3 225.47-10.3 226.07-14.7L226.07-14.7Q225.37-14.85 225.05-15.38 224.72-15.9 224.72-16.8L224.72-16.8Q224.72-17.75 225.12-18.45 225.52-19.15 226.27-19.5L226.27-19.5Q226.17-21.1 225.75-21.75 225.32-22.4 224.37-22.4ZM242.22-19L238.22 0 231.02 0 236.32-25 243.52-25 242.87-21.9Q245.07-23.75 246.35-24.38 247.62-25 248.92-25L248.92-25Q250.47-25 251.42-23.93 252.37-22.85 252.37-21.25L252.37-21.25Q252.37-19.7 251.37-18.65 250.37-17.6 248.77-17.6L248.77-17.6Q247.92-17.6 247.45-18 246.97-18.4 246.77-19.65L246.77-19.65Q246.62-20.45 246.42-20.68 246.22-20.9 245.87-20.9L245.87-20.9Q245.02-20.9 244.27-20.55 243.52-20.2 242.22-19L242.22-19Z" opacity="1" transform="matrix(1,0,0,1,0,0)" fill="#ffffff" class="undefined-text-0" data-fill-palette-color="primary" id="text-0"></path></svg></g></svg></g><g transform="matrix(1,0,0,1,163.310208,74.20255798376229)"><svg viewBox="0 0 232.209792 30.786690248520713" height="30.786690248520713" width="232.209792"><g transform="matrix(1,0,0,1,0,0)"><svg width="232.209792" viewBox="0.05000000447034836 -35.349998474121094 270.3700256347656 35.849998474121094" height="30.786690248520713" data-palette-color="#001f3f"><path d="M12.65 0L7 0Q6.8 0 6.8-0.25L6.8-0.25 6.8-28.75 0.3-28.75Q0.05-28.75 0.05-29L0.05-29 0.1-34.6Q0.1-34.8 0.3-34.8L0.3-34.8 19.3-34.8Q19.55-34.8 19.55-34.6L19.55-34.6 19.55-29Q19.55-28.75 19.35-28.75L19.35-28.75 12.8-28.75 12.85-0.25Q12.85 0 12.65 0L12.65 0ZM27.85 0L22.2 0Q22 0 22-0.25L22-0.25 22.05-34.6Q22.05-34.8 22.3-34.8L22.3-34.8 27.85-34.8Q28.1-34.8 28.1-34.6L28.1-34.6 28.05-21 35.55-21 35.55-34.6Q35.55-34.8 35.75-34.8L35.75-34.8 41.3-34.8Q41.55-34.8 41.55-34.6L41.55-34.6 41.65-0.25Q41.65 0 41.4 0L41.4 0 35.8 0Q35.55 0 35.55-0.25L35.55-0.25 35.55-14.95 28.05-14.95 28.05-0.25Q28.05 0 27.85 0L27.85 0ZM62.1 0L45.95 0Q45.75 0 45.75-0.25L45.75-0.25 45.8-34.6Q45.8-34.8 46-34.8L46-34.8 62.05-34.8Q62.25-34.8 62.25-34.55L62.25-34.55 62.25-28.95Q62.25-28.75 62.05-28.75L62.05-28.75 51.8-28.75 51.8-20.95 62.05-20.95Q62.25-20.95 62.25-20.75L62.25-20.75 62.3-15.1Q62.3-14.9 62.1-14.9L62.1-14.9 51.8-14.9 51.8-6.15 62.1-6.15Q62.3-6.15 62.3-5.9L62.3-5.9 62.3-0.2Q62.3 0 62.1 0L62.1 0ZM83.34-0.05L74.39 0Q74.14 0 74.14-0.25L74.14-0.25 74.24-34.6Q74.24-34.8 74.44-34.8L74.44-34.8 83.79-34.85Q86.54-34.9 88.82-33.55 91.09-32.2 92.44-29.93 93.79-27.65 93.79-24.9L93.79-24.9 93.79-10.55Q93.79-7.65 92.39-5.28 90.99-2.9 88.64-1.5 86.29-0.1 83.34-0.05L83.34-0.05ZM80.29-28.8L80.24-6.15 83.34-6.15Q85.19-6.15 86.47-7.45 87.74-8.75 87.74-10.55L87.74-10.55 87.74-24.95Q87.74-26.55 86.57-27.73 85.39-28.9 83.79-28.85L83.79-28.85 80.29-28.8ZM114.09 0L97.94 0Q97.74 0 97.74-0.25L97.74-0.25 97.79-34.6Q97.79-34.8 97.99-34.8L97.99-34.8 114.04-34.8Q114.24-34.8 114.24-34.55L114.24-34.55 114.24-28.95Q114.24-28.75 114.04-28.75L114.04-28.75 103.79-28.75 103.79-20.95 114.04-20.95Q114.24-20.95 114.24-20.75L114.24-20.75 114.29-15.1Q114.29-14.9 114.09-14.9L114.09-14.9 103.79-14.9 103.79-6.15 114.09-6.15Q114.29-6.15 114.29-5.9L114.29-5.9 114.29-0.2Q114.29 0 114.09 0L114.09 0ZM126.94 0.5L126.94 0.5Q124.24 0.5 122.01-0.88 119.79-2.25 118.46-4.53 117.14-6.8 117.14-9.55L117.14-9.55 117.14-11.85Q117.14-12.1 117.39-12.1L117.39-12.1 122.99-12.1Q123.19-12.1 123.19-11.85L123.19-11.85 123.19-9.55Q123.19-7.9 124.29-6.73 125.39-5.55 126.94-5.55L126.94-5.55Q128.49-5.55 129.59-6.75 130.69-7.95 130.69-9.55L130.69-9.55Q130.69-11.4 128.29-12.75L128.29-12.75Q127.49-13.2 125.79-14.15 124.09-15.1 122.59-15.95L122.59-15.95Q119.84-17.55 118.51-19.98 117.19-22.4 117.19-25.45L117.19-25.45Q117.19-28.25 118.54-30.48 119.89-32.7 122.11-34 124.34-35.3 126.94-35.3L126.94-35.3Q129.59-35.3 131.81-33.98 134.04-32.65 135.36-30.43 136.69-28.2 136.69-25.45L136.69-25.45 136.69-21.35Q136.69-21.15 136.49-21.15L136.49-21.15 130.89-21.15Q130.69-21.15 130.69-21.35L130.69-21.35 130.64-25.45Q130.64-27.2 129.54-28.3 128.44-29.4 126.94-29.4L126.94-29.4Q125.39-29.4 124.29-28.23 123.19-27.05 123.19-25.45L123.19-25.45Q123.19-23.8 123.89-22.7 124.59-21.6 126.44-20.6L126.44-20.6Q126.69-20.45 127.41-20.08 128.14-19.7 128.99-19.23 129.84-18.75 130.51-18.4 131.19-18.05 131.34-17.95L131.34-17.95Q133.84-16.55 135.29-14.53 136.74-12.5 136.74-9.55L136.74-9.55Q136.74-6.7 135.41-4.42 134.09-2.15 131.86-0.83 129.64 0.5 126.94 0.5ZM146.13 0L140.48 0Q140.23 0 140.23-0.25L140.23-0.25 140.28-34.6Q140.28-34.8 140.48-34.8L140.48-34.8 146.08-34.8Q146.28-34.8 146.28-34.6L146.28-34.6 146.33-0.25Q146.33 0 146.13 0L146.13 0ZM159.88 0.5L159.88 0.5Q157.18 0.5 154.98-0.85 152.78-2.2 151.46-4.48 150.13-6.75 150.13-9.55L150.13-9.55 150.13-25.4Q150.13-28.1 151.46-30.38 152.78-32.65 155.01-34 157.23-35.35 159.88-35.35L159.88-35.35Q162.63-35.35 164.86-34.02 167.08-32.7 168.38-30.45 169.68-28.2 169.68-25.4L169.68-25.4 169.68-23.1Q169.68-22.9 169.43-22.9L169.43-22.9 163.83-22.9Q163.63-22.9 163.63-23.1L163.63-23.1 163.63-25Q163.63-26.9 162.56-28.15 161.48-29.4 159.88-29.4L159.88-29.4Q158.43-29.4 157.31-28.2 156.18-27 156.18-25.4L156.18-25.4 156.18-9.55Q156.18-7.9 157.28-6.73 158.38-5.55 159.88-5.55L159.88-5.55Q161.48-5.55 162.56-6.7 163.63-7.85 163.63-9.55L163.63-9.55 163.63-12 160.13-12Q159.88-12 159.88-12.25L159.88-12.25 159.88-17.85Q159.88-18.1 160.13-18.1L160.13-18.1 169.48-18.1Q169.68-18.1 169.68-17.85L169.68-17.85 169.68-9.55Q169.68-6.75 168.36-4.48 167.03-2.2 164.83-0.85 162.63 0.5 159.88 0.5ZM178.68 0L173.68 0Q173.28 0 173.28-0.35L173.28-0.35 173.23-34.4Q173.23-34.8 173.63-34.8L173.63-34.8 178.13-34.8 186.58-15.1 186.33-34.4Q186.33-34.8 186.78-34.8L186.78-34.8 191.73-34.8Q192.03-34.8 192.03-34.4L192.03-34.4 192.08-0.3Q192.08 0 191.83 0L191.83 0 187.43 0 178.78-18.4 179.13-0.4Q179.13 0 178.68 0L178.68 0ZM209.67 0L204.02 0Q203.82 0 203.82-0.25L203.82-0.25 203.87-34.6Q203.87-34.8 204.12-34.8L204.12-34.8 209.67-34.8Q209.92-34.8 209.92-34.6L209.92-34.6 209.87-21 217.37-21 217.37-34.6Q217.37-34.8 217.57-34.8L217.57-34.8 223.12-34.8Q223.37-34.8 223.37-34.6L223.37-34.6 223.47-0.25Q223.47 0 223.22 0L223.22 0 217.62 0Q217.37 0 217.37-0.25L217.37-0.25 217.37-14.95 209.87-14.95 209.87-0.25Q209.87 0 209.67 0L209.67 0ZM236.77 0.5L236.77 0.5Q234.12 0.5 231.87-0.88 229.62-2.25 228.3-4.55 226.97-6.85 226.97-9.6L226.97-9.6 227.07-34.6Q227.07-34.8 227.27-34.8L227.27-34.8 232.87-34.8Q233.07-34.8 233.07-34.6L233.07-34.6 233.07-9.6Q233.07-7.9 234.15-6.73 235.22-5.55 236.77-5.55L236.77-5.55Q238.37-5.55 239.45-6.73 240.52-7.9 240.52-9.6L240.52-9.6 240.52-34.6Q240.52-34.8 240.72-34.8L240.72-34.8 246.32-34.8Q246.52-34.8 246.52-34.6L246.52-34.6 246.62-9.6Q246.62-6.8 245.3-4.5 243.97-2.2 241.75-0.85 239.52 0.5 236.77 0.5ZM259.72 0L250.77 0Q250.57 0 250.57-0.25L250.57-0.25 250.67-34.6Q250.67-34.8 250.87-34.8L250.87-34.8 260.47-34.8Q263.32-34.8 265.57-33.43 267.82-32.05 269.12-29.8 270.42-27.55 270.42-24.9L270.42-24.9Q270.42-22.75 269.44-20.9 268.47-19.05 267.12-17.9L267.12-17.9Q268.57-16.45 269.37-14.55 270.17-12.65 270.17-10.55L270.17-10.55Q270.17-7.65 268.77-5.25 267.37-2.85 264.99-1.43 262.62 0 259.72 0L259.72 0ZM256.67-28.85L256.67-21 260.47-21Q262.22-21 263.29-22.23 264.37-23.45 264.37-24.9L264.37-24.9Q264.37-26.5 263.22-27.68 262.07-28.85 260.47-28.85L260.47-28.85 256.67-28.85ZM256.67-14.95L256.62-6.1 259.72-6.1Q261.52-6.1 262.82-7.43 264.12-8.75 264.12-10.55L264.12-10.55Q264.12-12.35 262.82-13.65 261.52-14.95 259.72-14.95L259.72-14.95 256.67-14.95Z" opacity="1" transform="matrix(1,0,0,1,0,0)" fill="#ffffff" class="undefined-text-1" data-fill-palette-color="secondary" id="text-1"></path></svg></g></svg></g></svg></g></svg></g><g transform="matrix(1,0,0,1,409.6918171686649,0)"><svg viewBox="0 0 145.0951410570151 145.0951410570151" height="145.0951410570151" width="145.0951410570151"><g><svg xmlns="http://www.w3.org/2000/svg" xmlns:xlink="http://www.w3.org/1999/xlink" version="1.1" x="0" y="0" viewBox="2 2.000000238418579 60 60" style="enable-background:new 0 0 64 64;" xml:space="preserve" height="145.0951410570151" width="145.0951410570151" class="icon-icon-0" data-fill-palette-color="accent" id="icon-0"><path d="M3 58h1v3c0 0.552 0.447 1 1 1h4c0.553 0 1-0.448 1-1v-3h12v3c0 0.552 0.447 1 1 1h4c0.553 0 1-0.448 1-1v-3h1c0.553 0 1-0.448 1-1V46c0-1.858-1.279-3.411-3-3.858V39c0-2.757-2.243-5-5-5H10c-2.757 0-5 2.243-5 5v3.142c-1.721 0.447-3 2-3 3.858v11C2 57.552 2.447 58 3 58zM8 60H6v-2h2V60zM26 60h-2v-2h2V60zM7 39c0-1.654 1.346-3 3-3h12c1.654 0 3 1.346 3 3v3.126c-0.139 0.036-0.27 0.091-0.404 0.141-0.06 0.023-0.123 0.038-0.182 0.064-0.221 0.096-0.432 0.21-0.63 0.343-0.043 0.029-0.08 0.065-0.122 0.096-0.151 0.11-0.297 0.227-0.431 0.356-0.06 0.058-0.114 0.122-0.17 0.184-0.105 0.115-0.205 0.233-0.297 0.36-0.053 0.074-0.102 0.149-0.15 0.227-0.081 0.129-0.153 0.263-0.218 0.402-0.039 0.082-0.078 0.163-0.111 0.248-0.06 0.153-0.106 0.312-0.147 0.474-0.02 0.077-0.045 0.151-0.06 0.23C22.029 45.494 22 45.743 22 46v4H10v-4c0-0.257-0.029-0.506-0.076-0.75-0.015-0.079-0.04-0.153-0.06-0.23-0.041-0.162-0.087-0.321-0.147-0.474-0.033-0.085-0.072-0.166-0.111-0.248-0.066-0.139-0.138-0.272-0.218-0.402-0.048-0.077-0.097-0.153-0.15-0.227-0.091-0.127-0.192-0.245-0.297-0.36-0.057-0.062-0.11-0.126-0.17-0.184-0.134-0.13-0.28-0.246-0.431-0.356-0.042-0.031-0.079-0.067-0.122-0.096-0.198-0.133-0.409-0.247-0.63-0.343-0.059-0.026-0.122-0.041-0.182-0.064C7.27 42.217 7.139 42.162 7 42.126V39zM4 46c0-1.103 0.897-2 2-2s2 0.897 2 2v5c0 0.552 0.447 1 1 1h14c0.553 0 1-0.448 1-1v-5c0-1.103 0.897-2 2-2s2 0.897 2 2v10H4V46z" fill="#ffffff" data-fill-palette-color="accent"></path><path d="M61 40h-4.22l-0.811-3.243C55.858 36.312 55.459 36 55 36h-3v-2h6c0.553 0 1-0.448 1-1V23c0-0.552-0.447-1-1-1h-4v-3c0-0.43-0.274-0.789-0.655-0.93l3.362-3.362-1.414-1.414L51 17.586l-4.293-4.293-1.414 1.414 3.363 3.363C48.274 18.211 48 18.57 48 19v3h-4c-0.553 0-1 0.448-1 1v10c0 0.552 0.447 1 1 1h6v2h-3c-0.459 0-0.858 0.312-0.97 0.757L45.22 40H41c-0.553 0-1 0.448-1 1v6 10 5h2v-4h18v4h2v-5V47v-6C62 40.448 61.553 40 61 40zM50 20h2v2h-2V20zM45 24h12v8H45V24zM60 48v8h-8v-8H60zM47.781 38h6.438l0.5 2h-7.438L47.781 38zM42 42h18v4H42V42zM42 48h8v8h-8V48z" fill="#ffffff" data-fill-palette-color="accent"></path><rect x="54" y="51" width="2" height="2" fill="#ffffff" data-fill-palette-color="accent"></rect><rect x="46" y="51" width="2" height="2" fill="#ffffff" data-fill-palette-color="accent"></rect><path d="M41 23c0.294 0 0.573-0.129 0.763-0.354 0.19-0.225 0.272-0.521 0.224-0.811l-2-12C39.906 9.354 39.489 9 39 9h-8c-0.489 0-0.906 0.354-0.986 0.835l-2 12c-0.049 0.29 0.033 0.586 0.224 0.811C28.427 22.871 28.706 23 29 23h5v37h-2v2h6v-2h-2V23H41zM31.847 11h6.307l1.666 10h-9.639L31.847 11z" fill="#ffffff" data-fill-palette-color="accent"></path><path d="M3 24h22c0.553 0 1-0.448 1-1V9c0-0.552-0.447-1-1-1h-1.697l-8.748-5.832c-0.336-0.224-0.773-0.224-1.109 0L4.697 8H3C2.447 8 2 8.448 2 9v14C2 23.552 2.447 24 3 24zM14 4.202L19.697 8H8.303L14 4.202zM4 10h20v12H4V10z" fill="#ffffff" data-fill-palette-color="accent"></path><path d="M17.832 12.445c-0.371-0.557-1.293-0.557-1.664 0l-3.216 4.824L10.8 14.4c-0.377-0.504-1.223-0.504-1.6 0l-3 4c-0.228 0.303-0.264 0.708-0.095 1.047C6.275 19.786 6.621 20 7 20h5.997c0.001 0 0.002 0 0.003 0s0.002 0 0.003 0H21c0.369 0 0.708-0.203 0.882-0.528s0.154-0.72-0.05-1.026L17.832 12.445zM9 18l1-1.333L11 18H9zM14.868 18L17 14.803 19.132 18H14.868z" fill="#ffffff" data-fill-palette-color="accent"></path></svg></g></svg></g></svg></g><defs></defs></svg><rect width="395.52" height="103.44156318023235" fill="none" stroke="none" visibility="hidden"></rect></g></svg></g></svg>